<svg id="visual" viewBox="0 0 900 600" width="900" height="600" xmlns="http://www.w3.org/2000/svg" xmlns:xlink="http://www.w3.org/1999/xlink" version="1.1"><g stroke-width="3" stroke-linejoin="bevel"><path d="M456 293.1L428 309L481 322.9Z" fill="#464f5d" stroke="#FFFFFF"></path><path d="M428 309L455 361.7L481 322.9Z" fill="#777d88" stroke="#FFFFFF"></path><path d="M422 312.9L455 361.7L428 309Z" fill="#c7c9ce" stroke="#FFFFFF"></path><path d="M515 322.9L505 308L481 322.9Z" fill="#777d88" stroke="#FFFFFF"></path><path d="M481 322.9L505 308L456 293.1Z" fill="#91969f" stroke="#FFFFFF"></path><path d="M455 361.7L475 371.7L481 322.9Z" fill="#ffffff" stroke="#FFFFFF"></path><path d="M475 371.7L515 322.9L481 322.9Z" fill="#e2e4e6" stroke="#FFFFFF"></path><path d="M422 312.9L384 344.9L455 361.7Z" fill="#001122" stroke="#FFFFFF"></path><path d="M455 361.7L444 418.6L475 371.7Z" fill="#464f5d" stroke="#FFFFFF"></path><path d="M376 315L378 316L353 273Z" fill="#777d88" stroke="#FFFFFF"></path><path d="M422 312.9L378 316L384 344.9Z" fill="#e2e4e6" stroke="#FFFFFF"></path><path d="M378 316L422 312.9L353 273Z" fill="#5e6572" stroke="#FFFFFF"></path><path d="M505 308L457 245.1L456 293.1Z" fill="#5e6572" stroke="#FFFFFF"></path><path d="M456 293.1L457 245.1L428 309Z" fill="#777d88" stroke="#FFFFFF"></path><path d="M353 273L422 312.9L428 309Z" fill="#91969f" stroke="#FFFFFF"></path><path d="M378 316L376 315L384 344.9Z" fill="#abafb6" stroke="#FFFFFF"></path><path d="M376 315L376 354.7L384 344.9Z" fill="#001122" stroke="#FFFFFF"></path><path d="M384 344.9L386 384.7L455 361.7Z" fill="#91969f" stroke="#FFFFFF"></path><path d="M475 371.7L534 351.7L515 322.9Z" fill="#777d88" stroke="#FFFFFF"></path><path d="M534 351.7L543 327L515 322.9Z" fill="#abafb6" stroke="#FFFFFF"></path><path d="M515 322.9L543 327L505 308Z" fill="#777d88" stroke="#FFFFFF"></path><path d="M505 308L496 218.3L457 245.1Z" fill="#ffffff" stroke="#FFFFFF"></path><path d="M376 354.7L386 384.7L384 344.9Z" fill="#c7c9ce" stroke="#FFFFFF"></path><path d="M386 384.7L444 418.6L455 361.7Z" fill="#e2e4e6" stroke="#FFFFFF"></path><path d="M475 371.7L493 420.6L534 351.7Z" fill="#e2e4e6" stroke="#FFFFFF"></path><path d="M444 418.6L493 420.6L475 371.7Z" fill="#464f5d" stroke="#FFFFFF"></path><path d="M543 327L549 265L505 308Z" fill="#001122" stroke="#FFFFFF"></path><path d="M394 224.1L353 273L428 309Z" fill="#abafb6" stroke="#FFFFFF"></path><path d="M376 315L334 314.9L376 354.7Z" fill="#777d88" stroke="#FFFFFF"></path><path d="M549 265L496 218.3L505 308Z" fill="#5e6572" stroke="#FFFFFF"></path><path d="M457 245.1L394 224.1L428 309Z" fill="#91969f" stroke="#FFFFFF"></path><path d="M421 181.3L394 224.1L457 245.1Z" fill="#abafb6" stroke="#FFFFFF"></path><path d="M496 218.3L475 204.3L457 245.1Z" fill="#5e6572" stroke="#FFFFFF"></path><path d="M353 273L334 314.9L376 315Z" fill="#91969f" stroke="#FFFFFF"></path><path d="M376 354.7L316 397.7L386 384.7Z" fill="#2f3948" stroke="#FFFFFF"></path><path d="M493 420.6L556 388.6L534 351.7Z" fill="#001122" stroke="#FFFFFF"></path><path d="M534 351.7L592 377.7L543 327Z" fill="#5e6572" stroke="#FFFFFF"></path><path d="M608 306.9L583 253.3L549 265Z" fill="#777d88" stroke="#FFFFFF"></path><path d="M421 181.3L379 221.3L394 224.1Z" fill="#ffffff" stroke="#FFFFFF"></path><path d="M394 224.1L379 221.3L353 273Z" fill="#5e6572" stroke="#FFFFFF"></path><path d="M386 384.7L434 443.6L444 418.6Z" fill="#91969f" stroke="#FFFFFF"></path><path d="M444 418.6L461 471.4L493 420.6Z" fill="#777d88" stroke="#FFFFFF"></path><path d="M351 231.1L327 278.1L353 273Z" fill="#ffffff" stroke="#FFFFFF"></path><path d="M353 273L327 278.1L334 314.9Z" fill="#182535" stroke="#FFFFFF"></path><path d="M496 218.3L510 199.4L475 204.3Z" fill="#e2e4e6" stroke="#FFFFFF"></path><path d="M555 217.1L510 199.4L496 218.3Z" fill="#777d88" stroke="#FFFFFF"></path><path d="M379 221.3L351 231.1L353 273Z" fill="#91969f" stroke="#FFFFFF"></path><path d="M477 483.4L528 439.4L493 420.6Z" fill="#777d88" stroke="#FFFFFF"></path><path d="M493 420.6L528 439.4L556 388.6Z" fill="#777d88" stroke="#FFFFFF"></path><path d="M444 149.6L421 181.3L475 204.3Z" fill="#e2e4e6" stroke="#FFFFFF"></path><path d="M475 204.3L421 181.3L457 245.1Z" fill="#777d88" stroke="#FFFFFF"></path><path d="M350 157.6L307 230.3L351 231.1Z" fill="#182535" stroke="#FFFFFF"></path><path d="M583 253.3L555 217.1L549 265Z" fill="#5e6572" stroke="#FFFFFF"></path><path d="M549 265L555 217.1L496 218.3Z" fill="#ffffff" stroke="#FFFFFF"></path><path d="M608 306.9L549 265L543 327Z" fill="#c7c9ce" stroke="#FFFFFF"></path><path d="M386 384.7L404 462.4L434 443.6Z" fill="#777d88" stroke="#FFFFFF"></path><path d="M434 443.6L461 471.4L444 418.6Z" fill="#ffffff" stroke="#FFFFFF"></path><path d="M332 464.6L404 462.4L386 384.7Z" fill="#464f5d" stroke="#FFFFFF"></path><path d="M600 408.7L592 377.7L556 388.6Z" fill="#abafb6" stroke="#FFFFFF"></path><path d="M556 388.6L592 377.7L534 351.7Z" fill="#c7c9ce" stroke="#FFFFFF"></path><path d="M445 476.3L461 471.4L434 443.6Z" fill="#777d88" stroke="#FFFFFF"></path><path d="M555 217.1L512 181.3L510 199.4Z" fill="#c7c9ce" stroke="#FFFFFF"></path><path d="M510 199.4L512 181.3L475 204.3Z" fill="#464f5d" stroke="#FFFFFF"></path><path d="M592 377.7L608 306.9L543 327Z" fill="#464f5d" stroke="#FFFFFF"></path><path d="M404 462.4L445 476.3L434 443.6Z" fill="#e2e4e6" stroke="#FFFFFF"></path><path d="M294 368.7L376 354.7L334 314.9Z" fill="#5e6572" stroke="#FFFFFF"></path><path d="M294 368.7L316 397.7L376 354.7Z" fill="#2f3948" stroke="#FFFFFF"></path><path d="M665 245.1L587 230.1L583 253.3Z" fill="#182535" stroke="#FFFFFF"></path><path d="M583 253.3L587 230.1L555 217.1Z" fill="#464f5d" stroke="#FFFFFF"></path><path d="M555 217.1L570 189.4L512 181.3Z" fill="#c7c9ce" stroke="#FFFFFF"></path><path d="M445 476.3L469 483.3L461 471.4Z" fill="#91969f" stroke="#FFFFFF"></path><path d="M461 471.4L477 483.4L493 420.6Z" fill="#001122" stroke="#FFFFFF"></path><path d="M469 483.3L477 483.4L461 471.4Z" fill="#182535" stroke="#FFFFFF"></path><path d="M285 335.9L294 368.7L334 314.9Z" fill="#777d88" stroke="#FFFFFF"></path><path d="M341 494.4L422 486.3L404 462.4Z" fill="#abafb6" stroke="#FFFFFF"></path><path d="M404 462.4L422 486.3L445 476.3Z" fill="#abafb6" stroke="#FFFFFF"></path><path d="M445 476.3L422 528.1L469 483.3Z" fill="#2f3948" stroke="#FFFFFF"></path><path d="M512 580.1L525 494.3L477 483.4Z" fill="#ffffff" stroke="#FFFFFF"></path><path d="M255 331L285 335.9L264 248.1Z" fill="#5e6572" stroke="#FFFFFF"></path><path d="M327 278.1L285 335.9L334 314.9Z" fill="#ffffff" stroke="#FFFFFF"></path><path d="M564 463.6L600 408.7L556 388.6Z" fill="#abafb6" stroke="#FFFFFF"></path><path d="M653 311L645 288.1L608 306.9Z" fill="#abafb6" stroke="#FFFFFF"></path><path d="M564 463.6L556 388.6L528 439.4Z" fill="#464f5d" stroke="#FFFFFF"></path><path d="M474 134.4L444 149.6L475 204.3Z" fill="#91969f" stroke="#FFFFFF"></path><path d="M350 157.6L351 231.1L379 221.3Z" fill="#c7c9ce" stroke="#FFFFFF"></path><path d="M350 157.6L379 221.3L421 181.3Z" fill="#182535" stroke="#FFFFFF"></path><path d="M351 231.1L307 230.3L327 278.1Z" fill="#182535" stroke="#FFFFFF"></path><path d="M587 230.1L570 189.4L555 217.1Z" fill="#e2e4e6" stroke="#FFFFFF"></path><path d="M512 181.3L474 134.4L475 204.3Z" fill="#c7c9ce" stroke="#FFFFFF"></path><path d="M444 149.6L413 146.4L421 181.3Z" fill="#91969f" stroke="#FFFFFF"></path><path d="M525 494.3L564 463.6L528 439.4Z" fill="#91969f" stroke="#FFFFFF"></path><path d="M294 368.7L288 398.6L316 397.7Z" fill="#464f5d" stroke="#FFFFFF"></path><path d="M316 397.7L332 464.6L386 384.7Z" fill="#91969f" stroke="#FFFFFF"></path><path d="M231 378.9L288 398.6L294 368.7Z" fill="#c7c9ce" stroke="#FFFFFF"></path><path d="M528 116.7L474 134.4L512 181.3Z" fill="#abafb6" stroke="#FFFFFF"></path><path d="M394 104.7L386 124.6L413 146.4Z" fill="#c7c9ce" stroke="#FFFFFF"></path><path d="M422 528.1L477 483.4L469 483.3Z" fill="#ffffff" stroke="#FFFFFF"></path><path d="M477 483.4L525 494.3L528 439.4Z" fill="#ffffff" stroke="#FFFFFF"></path><path d="M285 449.4L332 464.6L316 397.7Z" fill="#777d88" stroke="#FFFFFF"></path><path d="M376 135.4L421 181.3L413 146.4Z" fill="#464f5d" stroke="#FFFFFF"></path><path d="M376 135.4L350 157.6L421 181.3Z" fill="#e2e4e6" stroke="#FFFFFF"></path><path d="M649 351.9L608 306.9L592 377.7Z" fill="#001122" stroke="#FFFFFF"></path><path d="M608 306.9L645 288.1L583 253.3Z" fill="#91969f" stroke="#FFFFFF"></path><path d="M587 230.1L601 175.4L570 189.4Z" fill="#c7c9ce" stroke="#FFFFFF"></path><path d="M651 435.4L649 351.9L600 408.7Z" fill="#5e6572" stroke="#FFFFFF"></path><path d="M600 408.7L649 351.9L592 377.7Z" fill="#001122" stroke="#FFFFFF"></path><path d="M264 248.1L285 335.9L327 278.1Z" fill="#464f5d" stroke="#FFFFFF"></path><path d="M285 335.9L255 331L294 368.7Z" fill="#777d88" stroke="#FFFFFF"></path><path d="M285 449.4L331 478.4L332 464.6Z" fill="#182535" stroke="#FFFFFF"></path><path d="M332 464.6L341 494.4L404 462.4Z" fill="#2f3948" stroke="#FFFFFF"></path><path d="M658 336L653 311L608 306.9Z" fill="#777d88" stroke="#FFFFFF"></path><path d="M386 124.6L376 135.4L413 146.4Z" fill="#ffffff" stroke="#FFFFFF"></path><path d="M281 196.4L274 229.1L307 230.3Z" fill="#c7c9ce" stroke="#FFFFFF"></path><path d="M307 230.3L264 248.1L327 278.1Z" fill="#5e6572" stroke="#FFFFFF"></path><path d="M598 475.4L619 436.6L564 463.6Z" fill="#5e6572" stroke="#FFFFFF"></path><path d="M564 463.6L619 436.6L600 408.7Z" fill="#464f5d" stroke="#FFFFFF"></path><path d="M274 229.1L264 248.1L307 230.3Z" fill="#2f3948" stroke="#FFFFFF"></path><path d="M685 368.7L658 336L649 351.9Z" fill="#5e6572" stroke="#FFFFFF"></path><path d="M649 351.9L658 336L608 306.9Z" fill="#5e6572" stroke="#FFFFFF"></path><path d="M264 248.1L247 328L255 331Z" fill="#777d88" stroke="#FFFFFF"></path><path d="M255 331L231 378.9L294 368.7Z" fill="#5e6572" stroke="#FFFFFF"></path><path d="M288 398.6L285 449.4L316 397.7Z" fill="#001122" stroke="#FFFFFF"></path><path d="M331 478.4L341 494.4L332 464.6Z" fill="#e2e4e6" stroke="#FFFFFF"></path><path d="M422 486.3L422 528.1L445 476.3Z" fill="#e2e4e6" stroke="#FFFFFF"></path><path d="M661 195.4L601 175.4L587 230.1Z" fill="#ffffff" stroke="#FFFFFF"></path><path d="M577 141.4L528 116.7L512 181.3Z" fill="#abafb6" stroke="#FFFFFF"></path><path d="M394 104.7L413 146.4L444 149.6Z" fill="#91969f" stroke="#FFFFFF"></path><path d="M376 135.4L377 108.6L350 157.6Z" fill="#c7c9ce" stroke="#FFFFFF"></path><path d="M354 539.3L422 528.1L422 486.3Z" fill="#777d88" stroke="#FFFFFF"></path><path d="M236 424.6L285 449.4L288 398.6Z" fill="#5e6572" stroke="#FFFFFF"></path><path d="M242 522.1L336 543.1L341 494.4Z" fill="#ffffff" stroke="#FFFFFF"></path><path d="M592 484.3L564 463.6L525 494.3Z" fill="#5e6572" stroke="#FFFFFF"></path><path d="M592 484.3L598 475.4L564 463.6Z" fill="#2f3948" stroke="#FFFFFF"></path><path d="M274 229.1L231 208.3L264 248.1Z" fill="#e2e4e6" stroke="#FFFFFF"></path><path d="M350 157.6L281 196.4L307 230.3Z" fill="#c7c9ce" stroke="#FFFFFF"></path><path d="M294 134.4L281 196.4L350 157.6Z" fill="#c7c9ce" stroke="#FFFFFF"></path><path d="M607 495.3L592 484.3L583 543.1Z" fill="#464f5d" stroke="#FFFFFF"></path><path d="M577 141.4L512 181.3L570 189.4Z" fill="#777d88" stroke="#FFFFFF"></path><path d="M470 88.7L394 104.7L444 149.6Z" fill="#001122" stroke="#FFFFFF"></path><path d="M601 175.4L577 141.4L570 189.4Z" fill="#5e6572" stroke="#FFFFFF"></path><path d="M470 88.7L444 149.6L474 134.4Z" fill="#5e6572" stroke="#FFFFFF"></path><path d="M386 124.6L377 108.6L376 135.4Z" fill="#ffffff" stroke="#FFFFFF"></path><path d="M686 250.1L665 245.1L645 288.1Z" fill="#2f3948" stroke="#FFFFFF"></path><path d="M645 288.1L665 245.1L583 253.3Z" fill="#ffffff" stroke="#FFFFFF"></path><path d="M599 111.6L571 120.6L577 141.4Z" fill="#abafb6" stroke="#FFFFFF"></path><path d="M693 291L645 288.1L653 311Z" fill="#001122" stroke="#FFFFFF"></path><path d="M394 104.7L377 108.6L386 124.6Z" fill="#464f5d" stroke="#FFFFFF"></path><path d="M648 448.6L644 442.4L619 436.6Z" fill="#5e6572" stroke="#FFFFFF"></path><path d="M619 436.6L651 435.4L600 408.7Z" fill="#182535" stroke="#FFFFFF"></path><path d="M648 448.6L619 436.6L598 475.4Z" fill="#abafb6" stroke="#FFFFFF"></path><path d="M644 442.4L651 435.4L619 436.6Z" fill="#91969f" stroke="#FFFFFF"></path><path d="M686 250.1L668 238.3L665 245.1Z" fill="#e2e4e6" stroke="#FFFFFF"></path><path d="M211 352.9L231 378.9L247 328Z" fill="#2f3948" stroke="#FFFFFF"></path><path d="M247 328L231 378.9L255 331Z" fill="#464f5d" stroke="#FFFFFF"></path><path d="M693 291L653 311L658 336Z" fill="#e2e4e6" stroke="#FFFFFF"></path><path d="M665 245.1L667 214.3L587 230.1Z" fill="#2f3948" stroke="#FFFFFF"></path><path d="M599 111.6L577 141.4L601 175.4Z" fill="#777d88" stroke="#FFFFFF"></path><path d="M577 141.4L571 120.6L528 116.7Z" fill="#91969f" stroke="#FFFFFF"></path><path d="M583 543.1L592 484.3L525 494.3Z" fill="#182535" stroke="#FFFFFF"></path><path d="M592 484.3L607 495.3L598 475.4Z" fill="#464f5d" stroke="#FFFFFF"></path><path d="M644 442.4L648 448.6L651 435.4Z" fill="#777d88" stroke="#FFFFFF"></path><path d="M494 88.6L474 134.4L528 116.7Z" fill="#182535" stroke="#FFFFFF"></path><path d="M494 88.6L470 88.7L474 134.4Z" fill="#91969f" stroke="#FFFFFF"></path><path d="M607 495.3L648 448.6L598 475.4Z" fill="#182535" stroke="#FFFFFF"></path><path d="M571 120.6L552 107.7L528 116.7Z" fill="#001122" stroke="#FFFFFF"></path><path d="M538 71.9L494 88.6L528 116.7Z" fill="#464f5d" stroke="#FFFFFF"></path><path d="M692 404.7L685 368.7L651 435.4Z" fill="#e2e4e6" stroke="#FFFFFF"></path><path d="M651 435.4L685 368.7L649 351.9Z" fill="#2f3948" stroke="#FFFFFF"></path><path d="M686 250.1L667 214.3L668 238.3Z" fill="#91969f" stroke="#FFFFFF"></path><path d="M668 238.3L667 214.3L665 245.1Z" fill="#182535" stroke="#FFFFFF"></path><path d="M599 111.6L561 107.6L571 120.6Z" fill="#ffffff" stroke="#FFFFFF"></path><path d="M571 120.6L561 107.6L552 107.7Z" fill="#001122" stroke="#FFFFFF"></path><path d="M552 107.7L538 71.9L528 116.7Z" fill="#182535" stroke="#FFFFFF"></path><path d="M341 494.4L354 539.3L422 486.3Z" fill="#5e6572" stroke="#FFFFFF"></path><path d="M336 543.1L354 539.3L341 494.4Z" fill="#abafb6" stroke="#FFFFFF"></path><path d="M231 378.9L236 424.6L288 398.6Z" fill="#464f5d" stroke="#FFFFFF"></path><path d="M242 522.1L341 494.4L331 478.4Z" fill="#e2e4e6" stroke="#FFFFFF"></path><path d="M714 358.9L693 291L658 336Z" fill="#abafb6" stroke="#FFFFFF"></path><path d="M743 210.4L661 195.4L667 214.3Z" fill="#91969f" stroke="#FFFFFF"></path><path d="M667 214.3L661 195.4L587 230.1Z" fill="#5e6572" stroke="#FFFFFF"></path><path d="M693 291L686 250.1L645 288.1Z" fill="#ffffff" stroke="#FFFFFF"></path><path d="M164 297L211 352.9L247 328Z" fill="#e2e4e6" stroke="#FFFFFF"></path><path d="M231 378.9L212 384.7L236 424.6Z" fill="#182535" stroke="#FFFFFF"></path><path d="M207 242.3L247 328L264 248.1Z" fill="#e2e4e6" stroke="#FFFFFF"></path><path d="M328 77.7L294 134.4L350 157.6Z" fill="#5e6572" stroke="#FFFFFF"></path><path d="M281 196.4L231 208.3L274 229.1Z" fill="#c7c9ce" stroke="#FFFFFF"></path><path d="M211 352.9L214 380.9L231 378.9Z" fill="#e2e4e6" stroke="#FFFFFF"></path><path d="M220 190.3L231 208.3L281 196.4Z" fill="#777d88" stroke="#FFFFFF"></path><path d="M188 391.6L212 384.7L214 380.9Z" fill="#abafb6" stroke="#FFFFFF"></path><path d="M214 380.9L212 384.7L231 378.9Z" fill="#2f3948" stroke="#FFFFFF"></path><path d="M333 551.3L336 543.1L242 522.1Z" fill="#abafb6" stroke="#FFFFFF"></path><path d="M512 580.1L477 483.4L483 585.1Z" fill="#91969f" stroke="#FFFFFF"></path><path d="M727 413.6L692 404.7L711 492.3Z" fill="#c7c9ce" stroke="#FFFFFF"></path><path d="M711 492.3L692 404.7L651 435.4Z" fill="#ffffff" stroke="#FFFFFF"></path><path d="M685 368.7L714 358.9L658 336Z" fill="#e2e4e6" stroke="#FFFFFF"></path><path d="M661 195.4L599 111.6L601 175.4Z" fill="#e2e4e6" stroke="#FFFFFF"></path><path d="M563 67.7L538 71.9L552 107.7Z" fill="#91969f" stroke="#FFFFFF"></path><path d="M512 580.1L583 543.1L525 494.3Z" fill="#c7c9ce" stroke="#FFFFFF"></path><path d="M607 495.3L651 528.3L648 448.6Z" fill="#5e6572" stroke="#FFFFFF"></path><path d="M477 483.4L422 528.1L483 585.1Z" fill="#abafb6" stroke="#FFFFFF"></path><path d="M692 404.7L705 374.9L685 368.7Z" fill="#182535" stroke="#FFFFFF"></path><path d="M231 208.3L207 242.3L264 248.1Z" fill="#777d88" stroke="#FFFFFF"></path><path d="M211 352.9L188 391.6L214 380.9Z" fill="#91969f" stroke="#FFFFFF"></path><path d="M248 481.3L331 478.4L285 449.4Z" fill="#777d88" stroke="#FFFFFF"></path><path d="M336 543.1L333 551.3L354 539.3Z" fill="#5e6572" stroke="#FFFFFF"></path><path d="M186 454.4L232 457.6L236 424.6Z" fill="#001122" stroke="#FFFFFF"></path><path d="M236 424.6L232 457.6L285 449.4Z" fill="#abafb6" stroke="#FFFFFF"></path><path d="M232 457.6L248 481.3L285 449.4Z" fill="#ffffff" stroke="#FFFFFF"></path><path d="M394 104.7L391 67.9L377 108.6Z" fill="#c7c9ce" stroke="#FFFFFF"></path><path d="M377 108.6L328 77.7L350 157.6Z" fill="#c7c9ce" stroke="#FFFFFF"></path><path d="M470 88.7L391 67.9L394 104.7Z" fill="#777d88" stroke="#FFFFFF"></path><path d="M420 20.9L391 67.9L470 88.7Z" fill="#c7c9ce" stroke="#FFFFFF"></path><path d="M563 67.7L552 107.7L561 107.6Z" fill="#2f3948" stroke="#FFFFFF"></path><path d="M494 88.6L480 32.9L470 88.7Z" fill="#777d88" stroke="#FFFFFF"></path><path d="M737 331.9L714 358.9L797 363.7Z" fill="#182535" stroke="#FFFFFF"></path><path d="M705 374.9L714 358.9L685 368.7Z" fill="#91969f" stroke="#FFFFFF"></path><path d="M693 291L755 287.1L686 250.1Z" fill="#ffffff" stroke="#FFFFFF"></path><path d="M232 457.6L240 476.3L248 481.3Z" fill="#91969f" stroke="#FFFFFF"></path><path d="M248 481.3L242 522.1L331 478.4Z" fill="#91969f" stroke="#FFFFFF"></path><path d="M483 585.1L422 528.1L433 590.1Z" fill="#ffffff" stroke="#FFFFFF"></path><path d="M433 590.1L422 528.1L392 600Z" fill="#91969f" stroke="#FFFFFF"></path><path d="M264 115.6L220 190.3L281 196.4Z" fill="#abafb6" stroke="#FFFFFF"></path><path d="M231 208.3L200 221.1L207 242.3Z" fill="#5e6572" stroke="#FFFFFF"></path><path d="M368 585.1L422 528.1L354 539.3Z" fill="#91969f" stroke="#FFFFFF"></path><path d="M220 190.3L212 199.4L231 208.3Z" fill="#001122" stroke="#FFFFFF"></path><path d="M212 199.4L200 221.1L231 208.3Z" fill="#464f5d" stroke="#FFFFFF"></path><path d="M140 325.9L188 391.6L211 352.9Z" fill="#464f5d" stroke="#FFFFFF"></path><path d="M637 47.7L584 80.9L599 111.6Z" fill="#5e6572" stroke="#FFFFFF"></path><path d="M599 111.6L584 80.9L561 107.6Z" fill="#2f3948" stroke="#FFFFFF"></path><path d="M354 56.9L328 77.7L377 108.6Z" fill="#e2e4e6" stroke="#FFFFFF"></path><path d="M294 134.4L264 115.6L281 196.4Z" fill="#91969f" stroke="#FFFFFF"></path><path d="M164 297L247 328L207 242.3Z" fill="#abafb6" stroke="#FFFFFF"></path><path d="M212 384.7L188 391.6L236 424.6Z" fill="#e2e4e6" stroke="#FFFFFF"></path><path d="M232 457.6L216 480.4L240 476.3Z" fill="#777d88" stroke="#FFFFFF"></path><path d="M584 80.9L563 67.7L561 107.6Z" fill="#777d88" stroke="#FFFFFF"></path><path d="M420 20.9L354 56.9L391 67.9Z" fill="#91969f" stroke="#FFFFFF"></path><path d="M342 600L368 585.1L333 551.3Z" fill="#001122" stroke="#FFFFFF"></path><path d="M333 551.3L368 585.1L354 539.3Z" fill="#777d88" stroke="#FFFFFF"></path><path d="M328 77.7L264 115.6L294 134.4Z" fill="#001122" stroke="#FFFFFF"></path><path d="M220 190.3L175 196.4L212 199.4Z" fill="#5e6572" stroke="#FFFFFF"></path><path d="M392 600L460 600L433 590.1Z" fill="#182535" stroke="#FFFFFF"></path><path d="M433 590.1L460 600L483 585.1Z" fill="#001122" stroke="#FFFFFF"></path><path d="M483 585.1L513 600L512 580.1Z" fill="#182535" stroke="#FFFFFF"></path><path d="M480 32.9L494 88.6L538 71.9Z" fill="#e2e4e6" stroke="#FFFFFF"></path><path d="M391 67.9L354 56.9L377 108.6Z" fill="#91969f" stroke="#FFFFFF"></path><path d="M242 51.9L242 113.6L264 115.6Z" fill="#001122" stroke="#FFFFFF"></path><path d="M727 413.6L714 358.9L705 374.9Z" fill="#abafb6" stroke="#FFFFFF"></path><path d="M714 358.9L737 331.9L693 291Z" fill="#c7c9ce" stroke="#FFFFFF"></path><path d="M686 250.1L743 210.4L667 214.3Z" fill="#001122" stroke="#FFFFFF"></path><path d="M460 600L513 600L483 585.1Z" fill="#777d88" stroke="#FFFFFF"></path><path d="M512 580.1L605 600L583 543.1Z" fill="#91969f" stroke="#FFFFFF"></path><path d="M513 600L514 600L512 580.1Z" fill="#182535" stroke="#FFFFFF"></path><path d="M368 585.1L392 600L422 528.1Z" fill="#182535" stroke="#FFFFFF"></path><path d="M186 454.4L216 480.4L232 457.6Z" fill="#464f5d" stroke="#FFFFFF"></path><path d="M240 476.3L216 480.4L248 481.3Z" fill="#464f5d" stroke="#FFFFFF"></path><path d="M641 593.1L651 528.3L583 543.1Z" fill="#5e6572" stroke="#FFFFFF"></path><path d="M583 543.1L651 528.3L607 495.3Z" fill="#001122" stroke="#FFFFFF"></path><path d="M692 404.7L727 413.6L705 374.9Z" fill="#777d88" stroke="#FFFFFF"></path><path d="M711 492.3L651 435.4L648 448.6Z" fill="#777d88" stroke="#FFFFFF"></path><path d="M489 22.9L480 32.9L538 71.9Z" fill="#91969f" stroke="#FFFFFF"></path><path d="M138 285.1L164 297L207 242.3Z" fill="#182535" stroke="#FFFFFF"></path><path d="M216 480.4L242 522.1L248 481.3Z" fill="#e2e4e6" stroke="#FFFFFF"></path><path d="M368 585.1L342 600L392 600Z" fill="#abafb6" stroke="#FFFFFF"></path><path d="M304 50.7L264 115.6L328 77.7Z" fill="#91969f" stroke="#FFFFFF"></path><path d="M264 115.6L242 113.6L220 190.3Z" fill="#001122" stroke="#FFFFFF"></path><path d="M212 199.4L175 196.4L200 221.1Z" fill="#ffffff" stroke="#FFFFFF"></path><path d="M200 221.1L138 285.1L207 242.3Z" fill="#5e6572" stroke="#FFFFFF"></path><path d="M188 391.6L186 454.4L236 424.6Z" fill="#777d88" stroke="#FFFFFF"></path><path d="M216 480.4L182 483.3L242 522.1Z" fill="#91969f" stroke="#FFFFFF"></path><path d="M158 422.7L186 454.4L188 391.6Z" fill="#5e6572" stroke="#FFFFFF"></path><path d="M495 0L489 22.9L548 0Z" fill="#ffffff" stroke="#FFFFFF"></path><path d="M480 32.9L420 20.9L470 88.7Z" fill="#91969f" stroke="#FFFFFF"></path><path d="M318 600L342 600L333 551.3Z" fill="#5e6572" stroke="#FFFFFF"></path><path d="M442 0L420 20.9L480 32.9Z" fill="#2f3948" stroke="#FFFFFF"></path><path d="M354 56.9L304 50.7L328 77.7Z" fill="#ffffff" stroke="#FFFFFF"></path><path d="M711 581.1L680 522.1L651 528.3Z" fill="#2f3948" stroke="#FFFFFF"></path><path d="M651 528.3L680 522.1L648 448.6Z" fill="#91969f" stroke="#FFFFFF"></path><path d="M766 297L755 287.1L737 331.9Z" fill="#e2e4e6" stroke="#FFFFFF"></path><path d="M737 331.9L755 287.1L693 291Z" fill="#91969f" stroke="#FFFFFF"></path><path d="M661 195.4L691 106.7L599 111.6Z" fill="#5e6572" stroke="#FFFFFF"></path><path d="M174 145.6L175 196.4L220 190.3Z" fill="#ffffff" stroke="#FFFFFF"></path><path d="M348 0L304 50.7L354 56.9Z" fill="#91969f" stroke="#FFFFFF"></path><path d="M680 522.1L711 492.3L648 448.6Z" fill="#abafb6" stroke="#FFFFFF"></path><path d="M779 295L766 297L797 363.7Z" fill="#464f5d" stroke="#FFFFFF"></path><path d="M755 287.1L743 210.4L686 250.1Z" fill="#5e6572" stroke="#FFFFFF"></path><path d="M269 591.1L318 600L333 551.3Z" fill="#e2e4e6" stroke="#FFFFFF"></path><path d="M153 409.6L158 422.7L188 391.6Z" fill="#c7c9ce" stroke="#FFFFFF"></path><path d="M186 454.4L182 483.3L216 480.4Z" fill="#001122" stroke="#FFFFFF"></path><path d="M140 325.9L153 409.6L188 391.6Z" fill="#2f3948" stroke="#FFFFFF"></path><path d="M138 285.1L140 325.9L164 297Z" fill="#abafb6" stroke="#FFFFFF"></path><path d="M164 297L140 325.9L211 352.9Z" fill="#777d88" stroke="#FFFFFF"></path><path d="M805 224.3L746 208.3L743 210.4Z" fill="#91969f" stroke="#FFFFFF"></path><path d="M710 108.6L691 106.7L721 121.6Z" fill="#c7c9ce" stroke="#FFFFFF"></path><path d="M766 297L737 331.9L797 363.7Z" fill="#2f3948" stroke="#FFFFFF"></path><path d="M805 224.3L793 198.4L746 208.3Z" fill="#001122" stroke="#FFFFFF"></path><path d="M158 422.7L182 483.3L186 454.4Z" fill="#5e6572" stroke="#FFFFFF"></path><path d="M242 522.1L269 591.1L333 551.3Z" fill="#2f3948" stroke="#FFFFFF"></path><path d="M110 235.3L138 285.1L200 221.1Z" fill="#abafb6" stroke="#FFFFFF"></path><path d="M514 600L605 600L512 580.1Z" fill="#464f5d" stroke="#FFFFFF"></path><path d="M680 522.1L722 496.4L711 492.3Z" fill="#777d88" stroke="#FFFFFF"></path><path d="M748 175.3L661 195.4L743 210.4Z" fill="#e2e4e6" stroke="#FFFFFF"></path><path d="M584 80.9L637 47.7L563 67.7Z" fill="#5e6572" stroke="#FFFFFF"></path><path d="M495 0L481 0L489 22.9Z" fill="#182535" stroke="#FFFFFF"></path><path d="M153 409.6L148 419.7L158 422.7Z" fill="#5e6572" stroke="#FFFFFF"></path><path d="M158 422.7L98 458.4L182 483.3Z" fill="#e2e4e6" stroke="#FFFFFF"></path><path d="M122 411.6L148 419.7L153 409.6Z" fill="#464f5d" stroke="#FFFFFF"></path><path d="M738 512.3L722 496.4L680 522.1Z" fill="#5e6572" stroke="#FFFFFF"></path><path d="M711 492.3L722 496.4L727 413.6Z" fill="#5e6572" stroke="#FFFFFF"></path><path d="M481 0L442 0L480 32.9Z" fill="#abafb6" stroke="#FFFFFF"></path><path d="M420 20.9L348 0L354 56.9Z" fill="#464f5d" stroke="#FFFFFF"></path><path d="M481 0L480 32.9L489 22.9Z" fill="#e2e4e6" stroke="#FFFFFF"></path><path d="M489 22.9L538 71.9L548 0Z" fill="#ffffff" stroke="#FFFFFF"></path><path d="M548 0L538 71.9L563 67.7Z" fill="#182535" stroke="#FFFFFF"></path><path d="M691 106.7L662 72.7L599 111.6Z" fill="#e2e4e6" stroke="#FFFFFF"></path><path d="M797 363.7L714 358.9L727 413.6Z" fill="#ffffff" stroke="#FFFFFF"></path><path d="M766 297L779 295L755 287.1Z" fill="#2f3948" stroke="#FFFFFF"></path><path d="M230 54.7L207 105.7L242 113.6Z" fill="#ffffff" stroke="#FFFFFF"></path><path d="M242 113.6L174 145.6L220 190.3Z" fill="#001122" stroke="#FFFFFF"></path><path d="M110 235.3L112 290.1L138 285.1Z" fill="#2f3948" stroke="#FFFFFF"></path><path d="M263 600L269 591.1L195 600Z" fill="#abafb6" stroke="#FFFFFF"></path><path d="M793 198.4L748 175.3L746 208.3Z" fill="#e2e4e6" stroke="#FFFFFF"></path><path d="M746 208.3L748 175.3L743 210.4Z" fill="#e2e4e6" stroke="#FFFFFF"></path><path d="M662 72.7L637 47.7L599 111.6Z" fill="#2f3948" stroke="#FFFFFF"></path><path d="M207 105.7L174 145.6L242 113.6Z" fill="#91969f" stroke="#FFFFFF"></path><path d="M605 600L641 593.1L583 543.1Z" fill="#001122" stroke="#FFFFFF"></path><path d="M629 600L641 593.1L605 600Z" fill="#2f3948" stroke="#FFFFFF"></path><path d="M691 106.7L686 70.9L662 72.7Z" fill="#e2e4e6" stroke="#FFFFFF"></path><path d="M662 72.7L648 37.9L637 47.7Z" fill="#abafb6" stroke="#FFFFFF"></path><path d="M721 121.6L691 106.7L661 195.4Z" fill="#ffffff" stroke="#FFFFFF"></path><path d="M748 175.3L721 121.6L661 195.4Z" fill="#c7c9ce" stroke="#FFFFFF"></path><path d="M623 0L548 0L563 67.7Z" fill="#91969f" stroke="#FFFFFF"></path><path d="M164 86.7L164 150.6L174 145.6Z" fill="#e2e4e6" stroke="#FFFFFF"></path><path d="M174 145.6L164 150.6L175 196.4Z" fill="#91969f" stroke="#FFFFFF"></path><path d="M442 0L348 0L420 20.9Z" fill="#e2e4e6" stroke="#FFFFFF"></path><path d="M304 50.7L242 51.9L264 115.6Z" fill="#001122" stroke="#FFFFFF"></path><path d="M195 600L269 591.1L242 522.1Z" fill="#5e6572" stroke="#FFFFFF"></path><path d="M269 591.1L263 600L318 600Z" fill="#e2e4e6" stroke="#FFFFFF"></path><path d="M710 108.6L686 70.9L691 106.7Z" fill="#abafb6" stroke="#FFFFFF"></path><path d="M637 47.7L623 0L563 67.7Z" fill="#2f3948" stroke="#FFFFFF"></path><path d="M726 30.9L686 70.9L710 108.6Z" fill="#91969f" stroke="#FFFFFF"></path><path d="M262 7.9L242 51.9L304 50.7Z" fill="#e2e4e6" stroke="#FFFFFF"></path><path d="M207 105.7L164 86.7L174 145.6Z" fill="#464f5d" stroke="#FFFFFF"></path><path d="M110 235.3L200 221.1L175 196.4Z" fill="#c7c9ce" stroke="#FFFFFF"></path><path d="M138 285.1L112 290.1L140 325.9Z" fill="#91969f" stroke="#FFFFFF"></path><path d="M140 325.9L122 411.6L153 409.6Z" fill="#ffffff" stroke="#FFFFFF"></path><path d="M751 537.1L738 512.3L680 522.1Z" fill="#abafb6" stroke="#FFFFFF"></path><path d="M722 496.4L760 496.4L727 413.6Z" fill="#464f5d" stroke="#FFFFFF"></path><path d="M91 376.7L122 411.6L140 325.9Z" fill="#001122" stroke="#FFFFFF"></path><path d="M97 482.4L136 530.3L182 483.3Z" fill="#abafb6" stroke="#FFFFFF"></path><path d="M182 483.3L154 538.1L242 522.1Z" fill="#2f3948" stroke="#FFFFFF"></path><path d="M686 70.9L648 37.9L662 72.7Z" fill="#464f5d" stroke="#FFFFFF"></path><path d="M804 397.6L797 363.7L727 413.6Z" fill="#abafb6" stroke="#FFFFFF"></path><path d="M805 224.3L743 210.4L755 287.1Z" fill="#182535" stroke="#FFFFFF"></path><path d="M262 7.9L230 54.7L242 51.9Z" fill="#777d88" stroke="#FFFFFF"></path><path d="M242 51.9L230 54.7L242 113.6Z" fill="#777d88" stroke="#FFFFFF"></path><path d="M67 330L14 276.1L37 325Z" fill="#ffffff" stroke="#FFFFFF"></path><path d="M112 290.1L100 312L140 325.9Z" fill="#c7c9ce" stroke="#FFFFFF"></path><path d="M751 537.1L760 496.4L738 512.3Z" fill="#e2e4e6" stroke="#FFFFFF"></path><path d="M738 512.3L760 496.4L722 496.4Z" fill="#2f3948" stroke="#FFFFFF"></path><path d="M100 206.3L110 235.3L175 196.4Z" fill="#777d88" stroke="#FFFFFF"></path><path d="M348 0L303 0L304 50.7Z" fill="#001122" stroke="#FFFFFF"></path><path d="M818 465.6L804 397.6L727 413.6Z" fill="#e2e4e6" stroke="#FFFFFF"></path><path d="M748 175.3L783 105.6L721 121.6Z" fill="#001122" stroke="#FFFFFF"></path><path d="M686 0L648 37.9L686 70.9Z" fill="#777d88" stroke="#FFFFFF"></path><path d="M805 224.3L755 287.1L779 295Z" fill="#464f5d" stroke="#FFFFFF"></path><path d="M805 224.3L836 248.3L810 224.1Z" fill="#182535" stroke="#FFFFFF"></path><path d="M634 0L623 0L648 37.9Z" fill="#464f5d" stroke="#FFFFFF"></path><path d="M648 37.9L623 0L637 47.7Z" fill="#91969f" stroke="#FFFFFF"></path><path d="M805 224.3L779 295L829 275Z" fill="#001122" stroke="#FFFFFF"></path><path d="M695 600L651 528.3L641 593.1Z" fill="#777d88" stroke="#FFFFFF"></path><path d="M695 600L711 581.1L651 528.3Z" fill="#182535" stroke="#FFFFFF"></path><path d="M79 354.9L91 376.7L140 325.9Z" fill="#ffffff" stroke="#FFFFFF"></path><path d="M136 530.3L154 538.1L182 483.3Z" fill="#2f3948" stroke="#FFFFFF"></path><path d="M79 354.9L140 325.9L100 312Z" fill="#e2e4e6" stroke="#FFFFFF"></path><path d="M164 59.9L187 68.7L172 43.9Z" fill="#c7c9ce" stroke="#FFFFFF"></path><path d="M230 54.7L187 68.7L207 105.7Z" fill="#91969f" stroke="#FFFFFF"></path><path d="M100 174.4L100 206.3L175 196.4Z" fill="#ffffff" stroke="#FFFFFF"></path><path d="M303 0L262 7.9L304 50.7Z" fill="#91969f" stroke="#FFFFFF"></path><path d="M711 581.1L751 537.1L680 522.1Z" fill="#001122" stroke="#FFFFFF"></path><path d="M760 496.4L818 465.6L727 413.6Z" fill="#5e6572" stroke="#FFFFFF"></path><path d="M657 0L648 37.9L686 0Z" fill="#abafb6" stroke="#FFFFFF"></path><path d="M657 0L634 0L648 37.9Z" fill="#5e6572" stroke="#FFFFFF"></path><path d="M629 600L695 600L641 593.1Z" fill="#ffffff" stroke="#FFFFFF"></path><path d="M736 600L778 540.1L751 537.1Z" fill="#5e6572" stroke="#FFFFFF"></path><path d="M829 275L779 295L797 363.7Z" fill="#464f5d" stroke="#FFFFFF"></path><path d="M805 224.3L810 224.1L793 198.4Z" fill="#91969f" stroke="#FFFFFF"></path><path d="M158 422.7L148 419.7L98 458.4Z" fill="#2f3948" stroke="#FFFFFF"></path><path d="M100 174.4L175 196.4L164 150.6Z" fill="#001122" stroke="#FFFFFF"></path><path d="M67 330L100 312L14 276.1Z" fill="#2f3948" stroke="#FFFFFF"></path><path d="M164 59.9L164 86.7L187 68.7Z" fill="#2f3948" stroke="#FFFFFF"></path><path d="M187 68.7L164 86.7L207 105.7Z" fill="#464f5d" stroke="#FFFFFF"></path><path d="M303 0L264 0L262 7.9Z" fill="#e2e4e6" stroke="#FFFFFF"></path><path d="M262 7.9L195 0L230 54.7Z" fill="#abafb6" stroke="#FFFFFF"></path><path d="M264 0L260 0L262 7.9Z" fill="#5e6572" stroke="#FFFFFF"></path><path d="M67 330L79 354.9L100 312Z" fill="#2f3948" stroke="#FFFFFF"></path><path d="M98 458.4L148 419.7L122 411.6Z" fill="#e2e4e6" stroke="#FFFFFF"></path><path d="M778 540.1L783 503.4L751 537.1Z" fill="#5e6572" stroke="#FFFFFF"></path><path d="M751 537.1L783 503.4L760 496.4Z" fill="#c7c9ce" stroke="#FFFFFF"></path><path d="M842 366.9L829 275L797 363.7Z" fill="#777d88" stroke="#FFFFFF"></path><path d="M836 248.3L829 275L859 281.1Z" fill="#ffffff" stroke="#FFFFFF"></path><path d="M98 458.4L122 411.6L72 389.6Z" fill="#5e6572" stroke="#FFFFFF"></path><path d="M154 538.1L195 600L242 522.1Z" fill="#e2e4e6" stroke="#FFFFFF"></path><path d="M785 80.9L710 108.6L721 121.6Z" fill="#777d88" stroke="#FFFFFF"></path><path d="M172 600L195 600L154 538.1Z" fill="#182535" stroke="#FFFFFF"></path><path d="M72 389.6L122 411.6L91 376.7Z" fill="#91969f" stroke="#FFFFFF"></path><path d="M695 600L713 600L711 581.1Z" fill="#182535" stroke="#FFFFFF"></path><path d="M103 129.6L100 174.4L164 150.6Z" fill="#2f3948" stroke="#FFFFFF"></path><path d="M100 312L112 290.1L14 276.1Z" fill="#464f5d" stroke="#FFFFFF"></path><path d="M112 290.1L110 235.3L14 276.1Z" fill="#91969f" stroke="#FFFFFF"></path><path d="M79 354.9L72 389.6L91 376.7Z" fill="#182535" stroke="#FFFFFF"></path><path d="M37 325L72 389.6L79 354.9Z" fill="#182535" stroke="#FFFFFF"></path><path d="M172 43.9L187 68.7L230 54.7Z" fill="#777d88" stroke="#FFFFFF"></path><path d="M164 86.7L117 110.7L164 150.6Z" fill="#001122" stroke="#FFFFFF"></path><path d="M842 366.9L797 363.7L804 397.6Z" fill="#2f3948" stroke="#FFFFFF"></path><path d="M829 275L836 248.3L805 224.3Z" fill="#c7c9ce" stroke="#FFFFFF"></path><path d="M842 139.6L783 105.6L793 198.4Z" fill="#e2e4e6" stroke="#FFFFFF"></path><path d="M793 198.4L783 105.6L748 175.3Z" fill="#777d88" stroke="#FFFFFF"></path><path d="M76 484.3L97 482.4L98 458.4Z" fill="#abafb6" stroke="#FFFFFF"></path><path d="M98 458.4L97 482.4L182 483.3Z" fill="#182535" stroke="#FFFFFF"></path><path d="M849 373.7L842 366.9L804 397.6Z" fill="#c7c9ce" stroke="#FFFFFF"></path><path d="M736 600L751 537.1L711 581.1Z" fill="#5e6572" stroke="#FFFFFF"></path><path d="M783 503.4L818 465.6L760 496.4Z" fill="#c7c9ce" stroke="#FFFFFF"></path><path d="M844 465.6L818 465.6L843 501.4Z" fill="#e2e4e6" stroke="#FFFFFF"></path><path d="M829 194.4L793 198.4L810 224.1Z" fill="#c7c9ce" stroke="#FFFFFF"></path><path d="M195 0L172 43.9L230 54.7Z" fill="#91969f" stroke="#FFFFFF"></path><path d="M164 59.9L117 110.7L164 86.7Z" fill="#abafb6" stroke="#FFFFFF"></path><path d="M108 583.1L172 600L154 538.1Z" fill="#91969f" stroke="#FFFFFF"></path><path d="M108 583.1L154 538.1L136 530.3Z" fill="#464f5d" stroke="#FFFFFF"></path><path d="M726 30.9L686 0L686 70.9Z" fill="#464f5d" stroke="#FFFFFF"></path><path d="M61 111.7L117 110.7L57 63.9Z" fill="#5e6572" stroke="#FFFFFF"></path><path d="M837 199.4L829 194.4L810 224.1Z" fill="#5e6572" stroke="#FFFFFF"></path><path d="M713 600L736 600L711 581.1Z" fill="#001122" stroke="#FFFFFF"></path><path d="M785 80.9L726 30.9L710 108.6Z" fill="#464f5d" stroke="#FFFFFF"></path><path d="M117 110.7L103 129.6L164 150.6Z" fill="#5e6572" stroke="#FFFFFF"></path><path d="M100 174.4L76 169.4L100 206.3Z" fill="#c7c9ce" stroke="#FFFFFF"></path><path d="M844 465.6L849 373.7L804 397.6Z" fill="#182535" stroke="#FFFFFF"></path><path d="M842 366.9L859 281.1L829 275Z" fill="#c7c9ce" stroke="#FFFFFF"></path><path d="M842 139.6L793 95.7L783 105.6Z" fill="#ffffff" stroke="#FFFFFF"></path><path d="M836 248.3L837 199.4L810 224.1Z" fill="#c7c9ce" stroke="#FFFFFF"></path><path d="M900 196.3L837 199.4L836 248.3Z" fill="#e2e4e6" stroke="#FFFFFF"></path><path d="M78 158.4L76 169.4L100 174.4Z" fill="#c7c9ce" stroke="#FFFFFF"></path><path d="M842 139.6L793 198.4L829 194.4Z" fill="#e2e4e6" stroke="#FFFFFF"></path><path d="M783 105.6L785 80.9L721 121.6Z" fill="#182535" stroke="#FFFFFF"></path><path d="M873 351.7L859 281.1L842 366.9Z" fill="#91969f" stroke="#FFFFFF"></path><path d="M61 111.7L78 158.4L103 129.6Z" fill="#182535" stroke="#FFFFFF"></path><path d="M103 129.6L78 158.4L100 174.4Z" fill="#ffffff" stroke="#FFFFFF"></path><path d="M793 95.7L785 80.9L783 105.6Z" fill="#abafb6" stroke="#FFFFFF"></path><path d="M44 448.4L76 484.3L98 458.4Z" fill="#e2e4e6" stroke="#FFFFFF"></path><path d="M97 482.4L63 502.3L136 530.3Z" fill="#ffffff" stroke="#FFFFFF"></path><path d="M44 448.4L98 458.4L72 389.6Z" fill="#182535" stroke="#FFFFFF"></path><path d="M260 0L195 0L262 7.9Z" fill="#5e6572" stroke="#FFFFFF"></path><path d="M57 63.9L117 110.7L164 59.9Z" fill="#2f3948" stroke="#FFFFFF"></path><path d="M117 110.7L61 111.7L103 129.6Z" fill="#5e6572" stroke="#FFFFFF"></path><path d="M850 72.9L786 71.7L793 95.7Z" fill="#e2e4e6" stroke="#FFFFFF"></path><path d="M793 95.7L786 71.7L785 80.9Z" fill="#001122" stroke="#FFFFFF"></path><path d="M785 80.9L786 71.7L726 30.9Z" fill="#abafb6" stroke="#FFFFFF"></path><path d="M726 30.9L766 0L686 0Z" fill="#5e6572" stroke="#FFFFFF"></path><path d="M52 191.3L110 235.3L100 206.3Z" fill="#ffffff" stroke="#FFFFFF"></path><path d="M67 330L37 325L79 354.9Z" fill="#abafb6" stroke="#FFFFFF"></path><path d="M52 191.3L100 206.3L76 169.4Z" fill="#abafb6" stroke="#FFFFFF"></path><path d="M843 501.4L818 465.6L783 503.4Z" fill="#182535" stroke="#FFFFFF"></path><path d="M818 465.6L844 465.6L804 397.6Z" fill="#777d88" stroke="#FFFFFF"></path><path d="M849 373.7L870 361.9L842 366.9Z" fill="#abafb6" stroke="#FFFFFF"></path><path d="M843 501.4L783 503.4L822 546.1Z" fill="#abafb6" stroke="#FFFFFF"></path><path d="M900 401.6L870 361.9L849 373.7Z" fill="#abafb6" stroke="#FFFFFF"></path><path d="M900 317L873 351.7L900 324.9Z" fill="#777d88" stroke="#FFFFFF"></path><path d="M870 361.9L873 351.7L842 366.9Z" fill="#e2e4e6" stroke="#FFFFFF"></path><path d="M37 325L41 407.7L72 389.6Z" fill="#5e6572" stroke="#FFFFFF"></path><path d="M0 179.3L52 191.3L0 164.6Z" fill="#c7c9ce" stroke="#FFFFFF"></path><path d="M78 158.4L52 191.3L76 169.4Z" fill="#5e6572" stroke="#FFFFFF"></path><path d="M41 407.7L44 448.4L72 389.6Z" fill="#e2e4e6" stroke="#FFFFFF"></path><path d="M76 484.3L63 502.3L97 482.4Z" fill="#e2e4e6" stroke="#FFFFFF"></path><path d="M848 144.6L829 194.4L837 199.4Z" fill="#91969f" stroke="#FFFFFF"></path><path d="M848 144.6L842 139.6L829 194.4Z" fill="#182535" stroke="#FFFFFF"></path><path d="M848 144.6L837 199.4L900 184.4Z" fill="#ffffff" stroke="#FFFFFF"></path><path d="M822 546.1L783 503.4L778 540.1Z" fill="#c7c9ce" stroke="#FFFFFF"></path><path d="M900 324.9L873 351.7L900 350.7Z" fill="#91969f" stroke="#FFFFFF"></path><path d="M44 448.4L63 502.3L76 484.3Z" fill="#777d88" stroke="#FFFFFF"></path><path d="M817 600L822 546.1L778 540.1Z" fill="#5e6572" stroke="#FFFFFF"></path><path d="M900 264.1L836 248.3L859 281.1Z" fill="#777d88" stroke="#FFFFFF"></path><path d="M822 0L766 0L786 71.7Z" fill="#91969f" stroke="#FFFFFF"></path><path d="M61 564.1L108 583.1L136 530.3Z" fill="#5e6572" stroke="#FFFFFF"></path><path d="M817 600L826 548.3L822 546.1Z" fill="#5e6572" stroke="#FFFFFF"></path><path d="M822 546.1L826 548.3L843 501.4Z" fill="#182535" stroke="#FFFFFF"></path><path d="M52 191.3L14 276.1L110 235.3Z" fill="#5e6572" stroke="#FFFFFF"></path><path d="M37 325L0 390.7L41 407.7Z" fill="#e2e4e6" stroke="#FFFFFF"></path><path d="M41 407.7L0 432.4L44 448.4Z" fill="#2f3948" stroke="#FFFFFF"></path><path d="M113 0L164 59.9L172 43.9Z" fill="#5e6572" stroke="#FFFFFF"></path><path d="M0 238.1L0 287L14 276.1Z" fill="#001122" stroke="#FFFFFF"></path><path d="M108 583.1L107 600L172 600Z" fill="#2f3948" stroke="#FFFFFF"></path><path d="M104 600L107 600L108 583.1Z" fill="#5e6572" stroke="#FFFFFF"></path><path d="M873 351.7L870 361.9L900 350.7Z" fill="#001122" stroke="#FFFFFF"></path><path d="M873 351.7L900 317L859 281.1Z" fill="#91969f" stroke="#FFFFFF"></path><path d="M900 350.7L870 361.9L900 401.6Z" fill="#182535" stroke="#FFFFFF"></path><path d="M61 564.1L104 600L108 583.1Z" fill="#c7c9ce" stroke="#FFFFFF"></path><path d="M14 276.1L6 316.9L37 325Z" fill="#001122" stroke="#FFFFFF"></path><path d="M900 401.6L849 373.7L844 465.6Z" fill="#e2e4e6" stroke="#FFFFFF"></path><path d="M869 490.3L844 465.6L843 501.4Z" fill="#abafb6" stroke="#FFFFFF"></path><path d="M850 72.9L793 95.7L842 139.6Z" fill="#777d88" stroke="#FFFFFF"></path><path d="M786 71.7L766 0L726 30.9Z" fill="#2f3948" stroke="#FFFFFF"></path><path d="M900 539.1L869 490.3L843 501.4Z" fill="#c7c9ce" stroke="#FFFFFF"></path><path d="M900 317L900 264.1L859 281.1Z" fill="#182535" stroke="#FFFFFF"></path><path d="M0 287L6 316.9L14 276.1Z" fill="#c7c9ce" stroke="#FFFFFF"></path><path d="M0 287L0 315.9L6 316.9Z" fill="#001122" stroke="#FFFFFF"></path><path d="M6 316.9L0 390.7L37 325Z" fill="#182535" stroke="#FFFFFF"></path><path d="M900 443.4L900 401.6L844 465.6Z" fill="#777d88" stroke="#FFFFFF"></path><path d="M0 238.1L14 276.1L52 191.3Z" fill="#abafb6" stroke="#FFFFFF"></path><path d="M900 539.1L900 491.3L869 490.3Z" fill="#abafb6" stroke="#FFFFFF"></path><path d="M736 600L817 600L778 540.1Z" fill="#001122" stroke="#FFFFFF"></path><path d="M0 315.9L0 390.7L6 316.9Z" fill="#abafb6" stroke="#FFFFFF"></path><path d="M44 448.4L0 542.3L63 502.3Z" fill="#464f5d" stroke="#FFFFFF"></path><path d="M63 502.3L61 564.1L136 530.3Z" fill="#c7c9ce" stroke="#FFFFFF"></path><path d="M0 189.4L0 238.1L52 191.3Z" fill="#182535" stroke="#FFFFFF"></path><path d="M0 390.7L0 407.6L41 407.7Z" fill="#5e6572" stroke="#FFFFFF"></path><path d="M0 542.3L61 564.1L63 502.3Z" fill="#464f5d" stroke="#FFFFFF"></path><path d="M869 490.3L900 443.4L844 465.6Z" fill="#c7c9ce" stroke="#FFFFFF"></path><path d="M900 491.3L900 443.4L869 490.3Z" fill="#5e6572" stroke="#FFFFFF"></path><path d="M900 264.1L900 196.3L836 248.3Z" fill="#ffffff" stroke="#FFFFFF"></path><path d="M848 144.6L850 72.9L842 139.6Z" fill="#5e6572" stroke="#FFFFFF"></path><path d="M0 407.6L0 432.4L41 407.7Z" fill="#2f3948" stroke="#FFFFFF"></path><path d="M900 196.3L900 184.4L837 199.4Z" fill="#2f3948" stroke="#FFFFFF"></path><path d="M195 0L113 0L172 43.9Z" fill="#91969f" stroke="#FFFFFF"></path><path d="M0 179.3L0 189.4L52 191.3Z" fill="#e2e4e6" stroke="#FFFFFF"></path><path d="M900 144.6L850 72.9L848 144.6Z" fill="#2f3948" stroke="#FFFFFF"></path><path d="M850 72.9L838 49.9L786 71.7Z" fill="#91969f" stroke="#FFFFFF"></path><path d="M52 191.3L78 158.4L0 164.6Z" fill="#2f3948" stroke="#FFFFFF"></path><path d="M113 0L57 63.9L164 59.9Z" fill="#777d88" stroke="#FFFFFF"></path><path d="M113 0L106 0L57 63.9Z" fill="#777d88" stroke="#FFFFFF"></path><path d="M0 164.6L78 158.4L61 111.7Z" fill="#2f3948" stroke="#FFFFFF"></path><path d="M900 539.1L843 501.4L826 548.3Z" fill="#5e6572" stroke="#FFFFFF"></path><path d="M16 101.6L0 164.6L61 111.7Z" fill="#91969f" stroke="#FFFFFF"></path><path d="M900 184.4L900 144.6L848 144.6Z" fill="#e2e4e6" stroke="#FFFFFF"></path><path d="M823 0L822 0L838 49.9Z" fill="#001122" stroke="#FFFFFF"></path><path d="M838 49.9L822 0L786 71.7Z" fill="#e2e4e6" stroke="#FFFFFF"></path><path d="M823 0L838 49.9L882 50.7Z" fill="#ffffff" stroke="#FFFFFF"></path><path d="M11 59.9L16 101.6L57 63.9Z" fill="#e2e4e6" stroke="#FFFFFF"></path><path d="M57 63.9L16 101.6L61 111.7Z" fill="#5e6572" stroke="#FFFFFF"></path><path d="M882 50.7L838 49.9L850 72.9Z" fill="#2f3948" stroke="#FFFFFF"></path><path d="M876 600L900 539.1L826 548.3Z" fill="#777d88" stroke="#FFFFFF"></path><path d="M0 432.4L0 542.3L44 448.4Z" fill="#2f3948" stroke="#FFFFFF"></path><path d="M61 564.1L12 600L104 600Z" fill="#001122" stroke="#FFFFFF"></path><path d="M0 542.3L13 567.1L61 564.1Z" fill="#ffffff" stroke="#FFFFFF"></path><path d="M0 542.3L0 547.1L13 567.1Z" fill="#ffffff" stroke="#FFFFFF"></path><path d="M817 600L876 600L826 548.3Z" fill="#91969f" stroke="#FFFFFF"></path><path d="M900 63.9L882 50.7L850 72.9Z" fill="#91969f" stroke="#FFFFFF"></path><path d="M19 0L11 59.9L57 63.9Z" fill="#ffffff" stroke="#FFFFFF"></path><path d="M16 101.6L0 64.7L0 164.6Z" fill="#182535" stroke="#FFFFFF"></path><path d="M900 144.6L900 63.9L850 72.9Z" fill="#e2e4e6" stroke="#FFFFFF"></path><path d="M882 50.7L900 0L823 0Z" fill="#c7c9ce" stroke="#FFFFFF"></path><path d="M900 63.9L900 53.7L882 50.7Z" fill="#c7c9ce" stroke="#FFFFFF"></path><path d="M0 18.9L0 64.7L11 59.9Z" fill="#001122" stroke="#FFFFFF"></path><path d="M11 59.9L0 64.7L16 101.6Z" fill="#464f5d" stroke="#FFFFFF"></path><path d="M0 600L12 600L13 567.1Z" fill="#ffffff" stroke="#FFFFFF"></path><path d="M13 567.1L12 600L61 564.1Z" fill="#e2e4e6" stroke="#FFFFFF"></path><path d="M876 600L900 600L900 539.1Z" fill="#001122" stroke="#FFFFFF"></path><path d="M0 547.1L0 600L13 567.1Z" fill="#001122" stroke="#FFFFFF"></path><path d="M106 0L19 0L57 63.9Z" fill="#91969f" stroke="#FFFFFF"></path><path d="M19 0L0 18.9L11 59.9Z" fill="#2f3948" stroke="#FFFFFF"></path><path d="M900 53.7L900 0L882 50.7Z" fill="#182535" stroke="#FFFFFF"></path><path d="M19 0L0 0L0 18.9Z" fill="#ffffff" stroke="#FFFFFF"></path></g></svg>